<svg width="88" height="80" viewBox="0 0 88 80" fill="none" xmlns="http://www.w3.org/2000/svg">
<path fill-rule="evenodd" clip-rule="evenodd" d="M24.4998 47.873H10.6918C10.2104 47.8745 9.74917 48.0665 9.40876 48.4069C9.06835 48.7473 8.87641 49.2085 8.87483 49.69V51.507H26.3148V49.69C26.3127 49.209 26.1209 48.7484 25.781 48.4082C25.4412 48.0679 24.9807 47.8756 24.4998 47.873ZM18.9168 53.593H16.2738V75.36H18.9148V53.593H18.9168ZM50.8998 47.873H37.0998C36.6179 47.8737 36.1559 48.0653 35.8148 48.4058C35.4738 48.7463 35.2814 49.208 35.2798 49.69V51.507H52.7198V49.69C52.7182 49.208 52.5259 48.7463 52.1848 48.4058C51.8438 48.0653 51.3818 47.8737 50.8998 47.873ZM77.3048 47.873H63.4998C63.0186 47.8751 62.5576 48.0672 62.2173 48.4075C61.877 48.7478 61.6849 49.2087 61.6828 49.69V51.507H79.1228V49.69C79.1213 49.2085 78.9293 48.7473 78.5889 48.4069C78.2485 48.0665 77.7872 47.8745 77.3058 47.873H77.3048ZM86.8848 28.06H1.11483C0.965211 28.061 0.822004 28.1208 0.716112 28.2265C0.610221 28.3322 0.550137 28.4753 0.548828 28.625V31.948C0.550137 32.0976 0.610221 32.2407 0.716112 32.3464C0.822004 32.4521 0.965211 32.5119 1.11483 32.513H86.8848C87.0344 32.5119 87.1776 32.4521 87.2835 32.3464C87.3894 32.2407 87.4495 32.0976 87.4508 31.948V28.625C87.4495 28.4753 87.3894 28.3322 87.2835 28.2265C87.1776 28.1208 87.0344 28.061 86.8848 28.06ZM44.3998 0.626953V7.60595C44.4 7.77196 44.3602 7.93557 44.2838 8.08295L41.8768 13.741V25.974H49.1428V13.742L46.7368 8.12395C46.6605 7.9762 46.6207 7.81227 46.6208 7.64595V0.626953H44.3998ZM42.6798 53.593V75.36H45.3198V53.593H42.6798ZM69.0798 53.593V75.36H71.7208V53.593H69.0798ZM73.8108 69.22V53.593H80.1678C80.3048 53.593 80.4404 53.566 80.567 53.5136C80.6935 53.4611 80.8085 53.3843 80.9053 53.2875C81.0022 53.1906 81.079 53.0756 81.1314 52.9491C81.1839 52.8226 81.2108 52.6869 81.2108 52.55V49.69C81.2079 48.6565 80.7961 47.6662 80.0653 46.9354C79.3346 46.2047 78.3443 45.7929 77.3108 45.79H63.4998C62.4664 45.7929 61.4761 46.2047 60.7453 46.9354C60.0146 47.6662 59.6027 48.6565 59.5998 49.69V52.55C59.5998 52.6869 59.6268 52.8226 59.6792 52.9491C59.7316 53.0756 59.8085 53.1906 59.9053 53.2875C60.0022 53.3843 60.1171 53.4611 60.2437 53.5136C60.3702 53.566 60.5059 53.593 60.6428 53.593H66.9998V69.22H47.4058V53.593H53.7628C54.0394 53.593 54.3047 53.4831 54.5003 53.2875C54.6959 53.0919 54.8058 52.8266 54.8058 52.55V49.69C54.8024 48.6567 54.3904 47.6667 53.6598 46.936C52.9291 46.2054 51.9391 45.7934 50.9058 45.79H37.0998C36.0665 45.7934 35.0765 46.2054 34.3459 46.936C33.6152 47.6667 33.2033 48.6567 33.1998 49.69V52.55C33.1998 52.8266 33.3097 53.0919 33.5053 53.2875C33.7009 53.4831 33.9662 53.593 34.2428 53.593H40.5998V69.22H20.9998V53.593H27.3568C27.4938 53.593 27.6294 53.566 27.756 53.5136C27.8825 53.4611 27.9975 53.3843 28.0943 53.2875C28.1912 53.1906 28.268 53.0756 28.3204 52.9491C28.3729 52.8226 28.3998 52.6869 28.3998 52.55V49.69C28.3969 48.6565 27.9851 47.6662 27.2543 46.9354C26.5236 46.2047 25.5333 45.7929 24.4998 45.79H10.6918C9.65838 45.7929 8.66808 46.2047 7.93732 46.9354C7.20655 47.6662 6.79473 48.6565 6.79183 49.69V52.55C6.79183 52.8266 6.90172 53.0919 7.09732 53.2875C7.29292 53.4831 7.55821 53.593 7.83483 53.593H14.1918V69.22H3.99983V34.6H83.9998V69.22H73.8108ZM20.9998 73.858C21.8321 74.0667 22.623 74.4149 23.3388 74.888C23.6227 75.0387 23.8672 75.2541 24.0526 75.5168C24.2379 75.7794 24.3589 76.0819 24.4058 76.4C24.4058 77.086 23.7448 77.767 22.6758 78.313C21.0852 79.05 19.3465 79.412 17.5938 79.371C15.8415 79.4119 14.1032 79.05 12.5128 78.313C11.4438 77.767 10.7828 77.086 10.7828 76.4C10.8295 76.0816 10.9503 75.7787 11.1357 75.5156C11.321 75.2526 11.5657 75.0369 11.8498 74.886C12.5657 74.4129 13.3566 74.0647 14.1888 73.856V76.4C14.1888 76.6766 14.2987 76.9419 14.4943 77.1375C14.6899 77.3331 14.9552 77.443 15.2318 77.443H19.9568C20.0938 77.443 20.2294 77.416 20.356 77.3636C20.4825 77.3111 20.5975 77.2343 20.6943 77.1375C20.7912 77.0406 20.868 76.9256 20.9204 76.7991C20.9729 76.6726 20.9998 76.5369 20.9998 76.4V73.858ZM47.4058 73.858C48.238 74.0668 49.0289 74.415 49.7448 74.888C50.0287 75.0387 50.2732 75.2541 50.4585 75.5168C50.6439 75.7794 50.7649 76.0819 50.8118 76.4C50.8118 77.086 50.1508 77.767 49.0818 78.313C47.4913 79.0505 45.7526 79.4132 43.9998 79.373C42.2472 79.4138 40.5086 79.0518 38.9178 78.315C37.8488 77.769 37.1878 77.088 37.1878 76.402C37.2345 76.0836 37.3553 75.7807 37.5407 75.5176C37.726 75.2546 37.9707 75.0389 38.2548 74.888C38.9708 74.415 39.7616 74.0668 40.5938 73.858V76.4C40.5938 76.6766 40.7037 76.9419 40.8993 77.1375C41.0949 77.3331 41.3602 77.443 41.6368 77.443H46.3628C46.6394 77.443 46.9047 77.3331 47.1003 77.1375C47.2959 76.9419 47.4058 76.6766 47.4058 76.4V73.858ZM73.8108 73.858C74.6431 74.0667 75.4339 74.4149 76.1498 74.888C76.4337 75.0387 76.6782 75.2541 76.8636 75.5168C77.0489 75.7794 77.1699 76.0819 77.2168 76.4C77.2168 77.086 76.5558 77.767 75.4868 78.313C73.8836 79.0108 72.1538 79.371 70.4053 79.371C68.6568 79.371 66.927 79.0108 65.3238 78.313C64.2548 77.767 63.5938 77.086 63.5938 76.4C63.6405 76.0816 63.7613 75.7787 63.9467 75.5156C64.132 75.2526 64.3767 75.0369 64.6608 74.886C65.3768 74.4137 66.1677 74.0661 66.9998 73.858V76.4C66.9998 76.6766 67.1097 76.9419 67.3053 77.1375C67.5009 77.3331 67.7662 77.443 68.0428 77.443H72.7678C73.0444 77.443 73.3097 77.3331 73.5053 77.1375C73.7009 76.9419 73.8108 76.6766 73.8108 76.4V73.858ZM11.4098 7.10495H18.1468C18.4234 7.10495 18.6887 7.21484 18.8843 7.41044C19.0799 7.60604 19.1898 7.87133 19.1898 8.14795V12.96C19.1898 14.1298 18.7251 15.2518 17.8979 16.079C17.0707 16.9062 15.9487 17.371 14.7788 17.371C13.609 17.371 12.487 16.9062 11.6598 16.079C10.8326 15.2518 10.3678 14.1298 10.3678 12.96V8.14795C10.3678 7.87151 10.4776 7.60637 10.673 7.41079C10.8683 7.21522 11.1334 7.10522 11.4098 7.10495ZM17.0998 9.19095H12.4528V12.96C12.4654 13.5684 12.716 14.1476 13.1507 14.5734C13.5855 14.9992 14.1698 15.2377 14.7783 15.2377C15.3869 15.2377 15.9712 14.9992 16.4059 14.5734C16.8407 14.1476 17.0912 13.5684 17.1038 12.96V9.19095H17.0998ZM13.7318 19.231C13.7876 18.9962 13.9208 18.7872 14.1101 18.6376C14.2994 18.488 14.5336 18.4066 14.7748 18.4066C15.0161 18.4066 15.2503 18.488 15.4395 18.6376C15.6288 18.7872 15.7621 18.9962 15.8178 19.231V25.431C15.7621 25.6657 15.6288 25.8747 15.4395 26.0243C15.2503 26.1739 15.0161 26.2553 14.7748 26.2553C14.5336 26.2553 14.2994 26.1739 14.1101 26.0243C13.9208 25.8747 13.7876 25.6657 13.7318 25.431V19.231ZM25.6998 7.10495H32.4368C32.7134 7.10495 32.9787 7.21484 33.1743 7.41044C33.3699 7.60604 33.4798 7.87133 33.4798 8.14795V12.96C33.4624 14.1185 32.9899 15.2236 32.1645 16.0367C31.3391 16.8498 30.227 17.3055 29.0683 17.3055C27.9097 17.3055 26.7976 16.8498 25.9721 16.0367C25.1467 15.2236 24.6743 14.1185 24.6568 12.96V8.14795C24.6568 7.87133 24.7667 7.60604 24.9623 7.41044C25.1579 7.21484 25.4232 7.10495 25.6998 7.10495ZM31.3938 9.19095H26.7408V12.96C26.7534 13.5684 27.004 14.1476 27.4387 14.5734C27.8735 14.9992 28.4578 15.2377 29.0663 15.2377C29.6749 15.2377 30.2592 14.9992 30.6939 14.5734C31.1287 14.1476 31.3792 13.5684 31.3918 12.96V9.19095H31.3938ZM28.0258 19.231C28.0811 18.996 28.2142 18.7866 28.4034 18.6368C28.5927 18.4869 28.827 18.4054 29.0683 18.4054C29.3097 18.4054 29.544 18.4869 29.7332 18.6368C29.9225 18.7866 30.0555 18.996 30.1108 19.231V25.431C30.0555 25.6659 29.9225 25.8753 29.7332 26.0251C29.544 26.175 29.3097 26.2565 29.0683 26.2565C28.827 26.2565 28.5927 26.175 28.4034 26.0251C28.2142 25.8753 28.0811 25.6659 28.0258 25.431V19.231Z" fill="#FF2E8E"/>
</svg>
