<svg width="90" height="90" viewBox="0 0 90 90" fill="none" xmlns="http://www.w3.org/2000/svg">
<path d="M45 0C20.1827 0 0 20.1827 0 45C0 69.8173 20.1827 90 45 90C69.8173 90 90 69.8173 90 45C90 20.1827 69.8173 0 45 0ZM45 6C66.5746 6 84 23.4253 84 45C84 66.5746 66.5746 84 45 84C23.4254 84 6 66.5746 6 45C6 23.4253 23.4254 6 45 6ZM66.9062 25.9688C66.1226 25.9997 65.3823 26.3362 64.8438 26.9062L35.9688 56.7188L25.125 45.875C24.8552 45.5661 24.525 45.3157 24.1547 45.1394C23.7844 44.9631 23.3818 44.8646 22.9719 44.85C22.562 44.8354 22.1535 44.905 21.7716 45.0544C21.3896 45.2039 21.0424 45.4301 20.7513 45.719C20.4602 46.008 20.2315 46.3535 20.0792 46.7344C19.9269 47.1152 19.8543 47.5232 19.8659 47.9332C19.8775 48.3432 19.973 48.7464 20.1466 49.118C20.3201 49.4896 20.5681 49.8217 20.875 50.0938L33.875 63.0938C34.1563 63.3761 34.4911 63.5995 34.8598 63.7511C35.2285 63.9026 35.6236 63.9791 36.0222 63.9762C36.4208 63.9733 36.8148 63.891 37.1812 63.7341C37.5476 63.5772 37.8791 63.3489 38.1562 63.0625L69.1562 31.0625C69.5745 30.6338 69.8549 30.0896 69.9613 29.5002C70.0677 28.9107 69.9952 28.3029 69.7532 27.755C69.5112 27.2071 69.1107 26.7442 68.6033 26.4258C68.0959 26.1075 67.5049 25.9483 66.9062 25.9688Z" fill="#FF2E8E"/>
</svg>
