<svg width="74" height="80" viewBox="0 0 74 80" fill="none" xmlns="http://www.w3.org/2000/svg">
<path fill-rule="evenodd" clip-rule="evenodd" d="M47.1675 47.7109C53.1987 41.6797 62.9795 41.6797 69.0115 47.7109C75.0435 53.7421 75.0427 63.5229 69.0115 69.5549C62.9803 75.5869 53.1995 75.5861 47.1675 69.5549C41.1355 63.5237 41.1363 53.7429 47.1675 47.7109ZM28.3905 2.84388C28.8905 2.84388 29.3436 3.047 29.6717 3.37513L29.6756 3.37904C30.0037 3.70716 30.2069 4.16029 30.2069 4.66024C30.2069 5.16019 30.0037 5.61336 29.6756 5.94144L29.6717 5.94534C29.3436 6.27347 28.8904 6.47659 28.3905 6.47659C27.8866 6.47659 27.4335 6.27347 27.1053 5.94534C26.7772 5.61722 26.574 5.16018 26.574 4.66014C26.574 4.1601 26.7772 3.70311 27.1053 3.37494C27.1326 3.3476 27.16 3.32025 27.1912 3.29682C27.5115 3.01557 27.9296 2.84388 28.3905 2.84388ZM15.0975 12.5587H4.4175C4.37453 12.5587 4.33156 12.5782 4.30422 12.6056H4.30031C4.27297 12.6329 4.25344 12.6759 4.25344 12.7188V75.3908C4.25344 75.4338 4.27297 75.4768 4.30031 75.5041C4.32766 75.5315 4.37062 75.551 4.41359 75.551H52.3546C52.3976 75.551 52.4366 75.5315 52.4679 75.5041C52.4952 75.4768 52.5147 75.4338 52.5147 75.3908V74.6955C50.1553 73.8791 47.9444 72.5314 46.0616 70.6525C39.4249 64.0158 39.4249 53.2505 46.0616 46.6135C47.9444 44.7307 50.1593 43.383 52.5147 42.5705L52.5226 12.7185C52.5226 12.6756 52.503 12.6326 52.4757 12.6052C52.4483 12.5779 52.4054 12.5584 52.3624 12.5584H41.6824V14.6326C41.6824 15.1951 41.2254 15.6482 40.6668 15.6482H16.1118C15.5493 15.6482 15.0962 15.195 15.0962 14.6326L15.0975 12.5587ZM25.4845 48.5507H40.8555C41.418 48.5507 41.8711 48.0976 41.8711 47.5351C41.8711 46.9726 41.418 46.5195 40.8555 46.5195L25.4845 46.5156C24.922 46.5156 24.4689 46.9687 24.4689 47.5312C24.4689 48.0937 24.9259 48.5507 25.4845 48.5507ZM25.4845 26.0387C24.922 26.0387 24.4689 25.5856 24.4689 25.0231C24.4689 24.4606 24.922 24.0075 25.4845 24.0075H38.1755C38.738 24.0075 39.1911 24.4606 39.1911 25.0231C39.1911 25.5856 38.738 26.0387 38.1755 26.0387H25.4845ZM25.4845 30.902C24.922 30.902 24.4689 30.445 24.4689 29.8864C24.4689 29.3239 24.922 28.8708 25.4845 28.8708H47.3395C47.902 28.8708 48.3551 29.3239 48.3551 29.8864C48.3551 30.4489 47.902 30.902 47.3395 30.902H25.4845ZM25.4845 61.332C24.922 61.332 24.4689 60.8749 24.4689 60.3164C24.4689 59.7539 24.922 59.3008 25.4845 59.3008H38.1755C38.738 59.3008 39.1911 59.7539 39.1911 60.3164C39.1911 60.8789 38.738 61.332 38.1755 61.332H25.4845ZM25.4845 66.1953C24.922 66.1953 24.4689 65.7422 24.4689 65.1797C24.4689 64.6172 24.922 64.1641 25.4845 64.1641H38.7305C39.293 64.1641 39.7461 64.6211 39.7461 65.1797C39.7461 65.7422 39.293 66.1953 38.7305 66.1953H25.4845ZM25.4845 43.6873C24.922 43.6873 24.4689 43.2342 24.4689 42.6717C24.4689 42.1092 24.922 41.6561 25.4845 41.6561H38.1755C38.738 41.6561 39.1911 42.1092 39.1911 42.6717C39.1911 43.2342 38.738 43.6873 38.1755 43.6873H25.4845ZM11.1175 22.3593H17.9495C18.8753 22.3593 19.6292 23.1132 19.6292 24.039V30.871C19.6292 31.7968 18.8753 32.5507 17.9495 32.5507H11.1175C10.1917 32.5507 9.4378 31.7968 9.4378 30.871V24.039C9.4378 23.1132 10.1956 22.3593 11.1175 22.3593ZM11.1175 40.0043H17.9495C18.8753 40.0043 19.6292 40.7582 19.6292 41.684V48.516C19.6292 49.4418 18.8753 50.1957 17.9495 50.1957H11.1175C10.1917 50.1957 9.4378 49.4418 9.4378 48.516V41.684C9.4378 40.7582 10.1956 40.0043 11.1175 40.0043ZM11.1175 57.6493H17.9495C18.8753 57.6493 19.6292 58.4032 19.6292 59.329V66.161C19.6292 67.0868 18.8753 67.8407 17.9495 67.8407L11.1175 67.8446C10.1917 67.8446 9.4378 67.0907 9.4378 66.1649V59.3329C9.4378 58.4032 10.1956 57.6493 11.1175 57.6493ZM15.098 8.76628H0.624998C0.582029 8.76628 0.539061 8.78581 0.511719 8.81316C0.484375 8.8405 0.464844 8.88347 0.464844 8.92644V79.2894C0.464844 79.3207 0.468749 79.3441 0.472655 79.3558C0.476561 79.3676 0.492188 79.3832 0.507812 79.4027C0.527344 79.4222 0.546875 79.4379 0.558594 79.4418C0.574219 79.4496 0.597655 79.4535 0.624999 79.4535L56.152 79.3519C56.1833 79.3519 56.2145 79.3402 56.2418 79.3207L56.2653 79.2972C56.2926 79.2699 56.3122 79.2269 56.3122 79.184V75.5356C55.7223 75.4731 55.1325 75.3832 54.5505 75.2582V75.391C54.5505 75.9965 54.3044 76.5433 53.9059 76.9418C53.5075 77.3403 52.9606 77.5864 52.3551 77.5864H4.41713C3.81166 77.5864 3.26483 77.3403 2.86633 76.9418C2.46789 76.5434 2.2218 75.9965 2.2218 75.391L2.2257 12.719C2.2257 12.1175 2.47179 11.5706 2.87023 11.1721L2.87414 11.1682L2.87023 11.1643C3.26867 10.7659 3.81554 10.5198 4.42103 10.5198H15.097L15.098 8.76628ZM56.317 41.7273V8.92628H56.3209C56.3209 8.88722 56.3014 8.84425 56.2701 8.813L56.274 8.80909C56.2467 8.78175 56.2037 8.76222 56.1608 8.76222L41.6838 8.76613V10.5278H52.3637C52.9692 10.5278 53.5161 10.7739 53.9146 11.1724C54.313 11.5708 54.5591 12.1177 54.5591 12.7232V42.0082C55.1372 41.8832 55.7272 41.7898 56.317 41.7273ZM11.739 63.3173C11.3367 62.9306 11.3249 62.2861 11.7117 61.8837C12.0984 61.4813 12.7429 61.4696 13.1453 61.8563L14.0749 62.7509L15.8522 60.6064C16.2077 60.1728 16.8483 60.1142 17.2819 60.4696C17.7156 60.8251 17.7741 61.4657 17.4187 61.8993L14.9421 64.8837C14.9264 64.9033 14.9108 64.9228 14.8913 64.9423C14.5046 65.3447 13.864 65.3564 13.4577 64.9697L11.739 63.3173ZM11.739 45.6723C11.3367 45.2856 11.3249 44.6411 11.7117 44.2387C12.0984 43.8363 12.7429 43.8246 13.1453 44.2113L14.0749 45.1059L15.8522 42.9614C16.2077 42.5278 16.8483 42.4692 17.2819 42.8246C17.7156 43.1801 17.7741 43.8207 17.4187 44.2543L14.9421 47.2388C14.9264 47.2583 14.9108 47.2778 14.8913 47.2973C14.5046 47.6997 13.864 47.7114 13.4577 47.3247L11.739 45.6723ZM11.739 28.0273C11.3367 27.6406 11.3249 26.9961 11.7117 26.5937C12.0984 26.1913 12.7429 26.1796 13.1453 26.5663L14.0749 27.4609L15.8522 25.3164C16.2077 24.8828 16.8483 24.8242 17.2819 25.1796C17.7155 25.5351 17.7741 26.1757 17.4187 26.6093L14.9421 29.5937C14.9264 29.6133 14.9108 29.6328 14.8913 29.6523C14.5046 30.0547 13.864 30.0664 13.4577 29.6797L11.739 28.0273ZM33.524 5.67528C32.9615 5.67528 32.5084 5.22216 32.5084 4.65968C32.5084 3.52298 32.0475 2.49558 31.3014 1.74948C30.5592 1.00339 29.528 0.54248 28.3912 0.54248C27.2779 0.54248 26.2662 0.983891 25.524 1.69868L25.481 1.74946C24.7349 2.49555 24.2779 3.52286 24.2779 4.65966C24.2779 5.22216 23.8248 5.67526 23.2623 5.67526H20.0357C19.2389 5.67526 18.5123 6.00338 17.9849 6.53073C17.4575 7.05808 17.1295 7.78463 17.1295 8.58153V13.6167H39.6525V8.58153C39.6525 7.78465 39.3243 7.05813 38.797 6.53073C38.2696 6.00333 37.5431 5.67526 36.7462 5.67526L33.524 5.67528ZM49.219 59.2103L54.426 65.6165C55.1799 66.5462 56.5627 66.6946 57.4963 65.9485C57.5041 65.9407 57.508 65.9368 57.5158 65.9329C57.6565 65.8274 57.7854 65.7063 57.8986 65.5657L61.758 60.8157L63.1018 59.1595L66.9612 54.4095C67.719 53.4759 67.5745 52.0853 66.6409 51.3275C65.7073 50.5697 64.3167 50.7142 63.5589 51.6478L59.7073 56.39L59.6995 56.3978L58.3518 58.054L56.7971 59.9642C56.6291 60.1713 56.4026 60.2806 56.137 60.2806C55.8713 60.2806 55.6409 60.1713 55.4729 59.9642L52.6174 56.4486C51.8596 55.515 50.469 55.3705 49.5354 56.1283C48.6018 56.8861 48.4612 58.2767 49.219 59.2103Z" fill="#FF2E8E"/>
</svg>
