<svg width="68" height="99" viewBox="0 0 68 99" fill="none" xmlns="http://www.w3.org/2000/svg">
<path d="M63.123 17.9692H48.447V4.83722C48.447 3.20522 47.54 1.46122 46.241 0.596218C45.266 -0.0537819 44.165 -0.176782 43.142 0.249218L4.114 16.5372C2.676 17.1372 0 18.2522 0 21.1302V22.6812V94.2942C0 96.8892 2.111 99.0002 4.706 99.0002H63.122C65.717 99.0002 67.828 96.8892 67.828 94.2942V22.6812C67.83 20.0822 65.718 17.9692 63.123 17.9692ZM64.75 22.6812V25.0672H3.08V22.6812C3.08 21.7812 3.81 21.0482 4.707 21.0482H63.123C64.02 21.0482 64.75 21.7802 64.75 22.6812ZM44.327 3.09222C44.348 3.08322 44.392 3.06522 44.533 3.15922C44.977 3.45522 45.367 4.23922 45.367 4.83822V17.9692H8.678L44.327 3.09222ZM63.123 95.9212H4.707C3.81 95.9212 3.08 95.1912 3.08 94.2942V27.7642H64.75V94.2942C64.75 95.1912 64.02 95.9212 63.123 95.9212ZM51.46 29.6052L46.137 31.6362C45.784 31.7702 45.504 32.0472 45.365 32.3972L41.05 43.2372H40.449C39.772 36.7062 34.237 31.5962 27.53 31.5962C20.368 31.5962 14.541 37.4232 14.541 44.5852C14.541 51.2922 19.651 56.8272 26.182 57.5042V61.5272C26.182 66.4822 29.873 70.5902 34.651 71.2492V82.4592C29.412 82.6932 24.244 84.2952 24.244 87.5112C24.244 91.0042 30.338 92.5942 35.999 92.5942C41.66 92.5942 47.754 91.0032 47.754 87.5112C47.754 84.2952 42.586 82.6932 37.347 82.4592V71.2502C42.124 70.5902 45.815 66.4832 45.815 61.5282V44.5862C45.815 43.8412 45.211 43.2372 44.466 43.2372H43.952L47.651 33.9452L52.421 32.1252C53.117 31.8592 53.466 31.0802 53.2 30.3842C52.936 29.6882 52.156 29.3402 51.46 29.6052ZM37.184 52.9492C36.858 52.5682 36.555 52.1642 36.244 51.7482C34.802 49.8212 33.184 47.6612 28.878 47.3932V45.9352H39.976L37.184 52.9492ZM17.238 44.5862C17.238 38.9112 21.855 34.2942 27.53 34.2942C32.748 34.2942 37.068 38.1982 37.731 43.2372H27.53C26.785 43.2372 26.181 43.8412 26.181 44.5862V54.7872C21.141 54.1242 17.238 49.8042 17.238 44.5862ZM42.895 86.1442C44.657 86.7772 45.056 87.4202 45.056 87.5122C45.056 87.6042 44.658 88.2502 42.896 88.8822C41.096 89.5282 38.582 89.8982 35.998 89.8982C33.414 89.8982 30.9 89.5282 29.1 88.8822C27.338 88.2502 26.94 87.6052 26.94 87.5122C26.94 87.4202 27.338 86.7772 29.101 86.1442C30.586 85.6112 32.557 85.2652 34.65 85.1602V87.5122C34.65 88.2572 35.254 88.8612 35.999 88.8612C36.744 88.8612 37.348 88.2572 37.348 87.5122V85.1602C39.44 85.2662 41.41 85.6112 42.895 86.1442ZM35.998 68.6482C32.072 68.6482 28.878 65.4542 28.878 61.5282V50.0932C31.799 50.3102 32.783 51.6242 34.084 53.3642C34.812 54.3372 35.617 55.4122 36.835 56.3102C36.889 56.3552 36.946 56.3972 37.008 56.4342C38.384 57.3982 40.274 58.1342 43.118 58.2732V61.5282C43.118 65.4542 39.924 68.6482 35.998 68.6482ZM43.118 45.9352V55.5762C41.491 55.4882 40.306 55.1802 39.382 54.7222L42.88 45.9352H43.118ZM26.181 39.4372V36.8382C26.181 36.0932 26.785 35.4892 27.53 35.4892C28.275 35.4892 28.879 36.0932 28.879 36.8382V39.4372C28.879 40.1822 28.275 40.7862 27.53 40.7862C26.785 40.7862 26.181 40.1822 26.181 39.4372ZM30.216 41.8962C29.69 41.3692 29.691 40.5152 30.219 39.9892L32.059 38.1542C32.586 37.6282 33.44 37.6292 33.966 38.1572C34.492 38.6842 34.491 39.5382 33.963 40.0642L32.123 41.8992C31.86 42.1612 31.515 42.2932 31.171 42.2932C30.826 42.2932 30.48 42.1612 30.216 41.8962ZM24.843 47.2812C25.369 47.8082 25.368 48.6622 24.84 49.1882L23 51.0232C22.737 51.2852 22.392 51.4172 22.048 51.4172C21.702 51.4172 21.356 51.2852 21.093 51.0212C20.567 50.4942 20.568 49.6402 21.096 49.1142L22.936 47.2792C23.463 46.7522 24.317 46.7532 24.843 47.2812ZM22.375 45.9352H19.776C19.031 45.9352 18.427 45.3312 18.427 44.5862C18.427 43.8412 19.031 43.2372 19.776 43.2372H22.375C23.12 43.2372 23.724 43.8412 23.724 44.5862C23.724 45.3312 23.12 45.9352 22.375 45.9352ZM24.84 39.9892C25.367 40.5152 25.369 41.3692 24.843 41.8962C24.58 42.1602 24.234 42.2922 23.888 42.2922C23.543 42.2922 23.199 42.1612 22.936 41.8982L21.096 40.0632C20.569 39.5372 20.567 38.6832 21.093 38.1562C21.619 37.6282 22.473 37.6272 23 38.1532L24.84 39.9892Z" fill="#FF2E8E"/>
</svg>
