<svg width="1000" height="1000" viewBox="0 0 1000 1000" fill="none" xmlns="http://www.w3.org/2000/svg">
<circle cx="500" cy="500" r="500" fill="black"/>
<g clip-path="url(#clip0_2232_476)">
<path d="M236.428 756.41L270.229 812.503L270.668 813.231L271.091 812.493L303.245 756.41H321.972V757.484C318.868 758.631 316.524 760.466 314.969 764.059C313.38 767.73 312.626 773.211 312.626 781.604V834.642C312.626 839.584 312.863 843.163 313.698 845.704C314.12 846.985 314.699 848.023 315.491 848.843C316.208 849.584 317.08 850.126 318.123 850.519V851.591H293.56V850.519C294.602 850.127 295.475 849.584 296.191 848.843C296.984 848.023 297.563 846.985 297.984 845.704C298.82 843.163 299.058 839.584 299.058 834.642V766.253L298.123 767.892L265.281 825.485H262.692L228.342 769.115L227.414 767.594V826.397C227.414 834.792 228.236 840.281 230.006 843.961C231.741 847.569 234.367 849.393 237.859 850.53V851.591H220.443V850.519C221.486 850.126 222.359 849.584 223.075 848.843C223.867 848.023 224.446 846.985 224.867 845.704C225.703 843.163 225.94 839.584 225.94 834.642V781.604C225.94 773.211 225.187 767.73 223.598 764.059C222.043 760.466 219.698 758.631 216.595 757.484V756.41H236.428Z" fill="white" stroke="white"/>
<path d="M398.657 783.493V834.642C398.657 839.584 398.895 843.163 399.73 845.704C400.152 846.985 400.73 848.023 401.522 848.843C402.239 849.584 403.112 850.126 404.154 850.519V851.592H390.636C388.936 851.592 387.706 851.136 386.9 850.33C386.095 849.525 385.639 848.295 385.639 846.596V839.235L384.791 840.053C376.993 847.575 367.63 852.966 359.163 852.966C351.987 852.966 347.001 850.772 343.788 846.6C340.554 842.4 339.047 836.109 339.047 827.771V803.039C339.047 798.962 338.533 796.477 337.514 794.81C336.542 793.22 335.15 792.443 333.55 791.724V790.449L351.115 782.733L352.066 783.493V825.985C352.066 833.333 352.644 838.943 354.613 842.722C355.607 844.628 356.96 846.077 358.767 847.043C360.567 848.005 362.785 848.47 365.485 848.47C371.866 848.47 378.721 844.65 385.492 837.881L385.639 837.734V803.039C385.639 798.962 385.124 796.477 384.104 794.81C383.133 793.22 381.741 792.443 380.141 791.724V790.449L397.707 782.733L398.657 783.493Z" fill="white" stroke="white"/>
<path d="M442.353 782.93C449.978 782.93 458.107 784.373 462.758 786.209L463.41 800.558L462.564 800.699C457.805 791.008 449.225 783.854 439.055 783.854C430.262 783.854 424.261 788.488 424.261 794.796C424.261 798.837 426.086 801.726 429.455 804.102C432.788 806.451 437.666 808.325 443.844 810.384C449.374 812.25 455.061 813.978 459.386 816.968C463.665 819.926 466.592 824.109 466.592 830.933C466.592 836.053 464.974 841.483 460.943 845.63C456.918 849.771 450.429 852.691 440.566 852.691C430.746 852.691 421.478 849.766 416.307 846.446L414.985 829.137L415.536 829.026C421.504 842.111 431.462 851.352 443.856 851.492V851.493C452.61 851.634 458.384 845.821 458.384 839.177C458.384 834.61 456.546 831.409 453.183 828.9C449.859 826.421 445.04 824.615 439.065 822.761L439.062 822.76L437.726 822.349C431.126 820.296 425.835 818.296 422.127 815.456C418.216 812.461 416.053 808.522 416.053 802.49C416.053 797.404 418.024 792.532 422.268 788.925C426.517 785.313 433.09 782.93 442.353 782.93Z" fill="white" stroke="white"/>
<path d="M498.234 765.754V783.891H519.397L519.098 785.09H498.234V832.855C498.234 837.161 499.03 840.35 500.676 842.471C502.342 844.617 504.81 845.584 507.942 845.584C511.037 845.584 515.689 844.343 520.21 838.956L520.864 839.61C513.703 847.778 506.906 852.966 499.01 852.966C494.453 852.966 491.051 851.533 488.764 848.364C486.45 845.16 485.216 840.1 485.216 832.718V785.09H476.42V783.616L496.725 765.754H498.234Z" fill="white" stroke="white"/>
<path d="M545.792 756.41L579.594 812.503L580.032 813.231L580.455 812.493L612.609 756.41H631.336V757.484C628.233 758.631 625.888 760.466 624.333 764.059C622.744 767.73 621.99 773.211 621.99 781.604V834.642C621.99 839.584 622.227 843.163 623.062 845.704C623.484 846.985 624.063 848.023 624.855 848.843C625.572 849.584 626.445 850.126 627.487 850.519V851.591H602.924V850.519C603.967 850.127 604.839 849.584 605.556 848.843C606.348 848.023 606.927 846.985 607.349 845.704C608.184 843.163 608.422 839.584 608.422 834.642V766.253L607.487 767.892L574.646 825.485H572.057L537.706 769.115L536.778 767.594V826.397C536.778 834.792 537.601 840.281 539.37 843.961C541.105 847.569 543.731 849.393 547.224 850.53V851.591H529.808V850.519C530.85 850.126 531.723 849.584 532.439 848.843C533.232 848.023 533.81 846.985 534.231 845.704C535.067 843.163 535.305 839.584 535.305 834.642V781.604C535.305 773.211 534.551 767.73 532.962 764.059C531.407 760.466 529.062 758.631 525.959 757.484V756.41H545.792Z" fill="white" stroke="white"/>
<path d="M708.021 783.493V834.642C708.021 839.584 708.259 843.163 709.095 845.704C709.516 846.985 710.095 848.023 710.887 848.843C711.603 849.584 712.476 850.126 713.519 850.519V851.592H700C698.3 851.592 697.07 851.136 696.265 850.33C695.459 849.525 695.003 848.295 695.003 846.596V839.235L694.155 840.053C686.358 847.575 676.994 852.966 668.527 852.966C661.351 852.966 656.365 850.772 653.152 846.6C649.919 842.4 648.411 836.109 648.411 827.771V803.039C648.411 798.962 647.897 796.477 646.878 794.81C645.906 793.22 644.515 792.443 642.914 791.724V790.449L660.479 782.733L661.431 783.493V825.985C661.431 833.333 662.008 838.943 663.978 842.722C664.971 844.628 666.324 846.077 668.131 847.043C669.931 848.005 672.149 848.47 674.85 848.47C681.23 848.47 688.085 844.65 694.856 837.881L695.003 837.734V803.039C695.003 798.962 694.488 796.477 693.469 794.81C692.497 793.22 691.106 792.443 689.505 791.724V790.449L707.071 782.733L708.021 783.493Z" fill="white" stroke="white"/>
<path d="M742.694 742.272V834.642C742.694 839.584 742.931 843.163 743.767 845.704C744.188 846.986 744.767 848.023 745.56 848.843C746.276 849.584 747.149 850.126 748.191 850.519V851.592H724.178V850.519C725.221 850.126 726.093 849.584 726.81 848.843C727.602 848.023 728.181 846.986 728.603 845.704C729.438 843.163 729.675 839.584 729.675 834.642V761.818C729.675 757.742 729.161 755.256 728.142 753.589C727.17 751.999 725.778 751.222 724.178 750.503V749.229L741.743 741.513L742.694 742.272Z" fill="white" stroke="white"/>
<path d="M777.892 742.272V834.642C777.892 839.584 778.128 843.163 778.964 845.704C779.385 846.986 779.965 848.023 780.757 848.843C781.473 849.584 782.346 850.126 783.389 850.519V851.592H759.375V850.519C760.418 850.126 761.29 849.584 762.007 848.843C762.799 848.023 763.378 846.986 763.8 845.704C764.635 843.163 764.872 839.584 764.872 834.642V761.818C764.872 757.742 764.358 755.256 763.339 753.589C762.367 751.999 760.976 751.222 759.375 750.503V749.229L776.94 741.513L777.892 742.272Z" fill="white" stroke="white"/>
<path d="M500.29 146.5C566.669 146.462 631.81 164.473 688.736 198.604C745.665 232.734 792.237 281.7 823.465 340.26C854.695 398.818 869.407 464.767 866.025 531.043C862.705 596.113 842.068 659.094 806.276 713.491H806.275C805.36 714.883 803.509 715.288 802.09 714.435L801.954 714.348C800.567 713.416 800.165 711.564 801.006 710.133L801.091 709.995C836.247 656.54 856.519 594.658 859.78 530.724C863.104 465.581 848.643 400.759 817.948 343.199C787.251 285.641 741.476 237.511 685.521 203.964C629.567 170.416 565.539 152.714 500.294 152.751C435.048 152.788 371.041 170.565 315.125 204.177C259.209 237.789 213.488 285.971 182.858 343.564C152.229 401.158 137.843 465.997 141.241 531.136C144.576 595.067 164.918 656.927 200.136 710.342V710.341C201.089 711.786 200.709 713.73 199.278 714.693H199.277C197.844 715.66 195.903 715.279 194.955 713.842C159.101 659.486 138.391 596.528 134.997 531.462C131.54 465.19 146.175 399.226 177.337 340.63C208.499 282.035 255.014 233.016 311.902 198.819C368.791 164.623 433.911 146.538 500.29 146.5Z" fill="white" stroke="white"/>
<path d="M571.745 390.936C596.436 394.888 595.447 415.626 595.447 415.626M450.239 468.953C487.78 474.875 485.564 505.401 485.564 505.401M510.497 701.021C510.497 708.11 504.748 713.858 497.656 713.858C490.563 713.858 484.814 708.11 484.814 701.021C484.814 693.931 490.563 688.183 497.656 688.183C504.748 688.183 510.497 693.931 510.497 701.021ZM492.716 649.669C492.716 658.939 485.197 666.457 475.924 666.457C466.649 666.457 459.13 658.939 459.13 649.669C459.13 640.396 466.649 632.881 475.924 632.881C485.197 632.881 492.716 640.396 492.716 649.669ZM478.887 387.974C478.887 398.882 470.043 407.723 459.132 407.723C448.221 407.723 439.375 398.882 439.375 387.974C439.375 377.066 448.221 368.222 459.132 368.222C470.043 368.222 478.887 377.066 478.887 387.974ZM615.202 415.624C615.202 439.622 595.743 459.075 571.739 459.075C547.735 459.075 528.276 439.622 528.276 415.624C528.276 391.627 547.735 372.173 571.739 372.173C595.743 372.173 615.202 391.627 615.202 415.624ZM508.522 509.439C508.522 543.801 480.66 571.655 446.291 571.655C411.922 571.655 384.061 543.801 384.061 509.439C384.061 475.079 411.922 447.225 446.291 447.225C480.66 447.225 508.522 475.079 508.522 509.439ZM553.962 613.129C553.962 625.129 544.232 634.856 532.23 634.856C520.229 634.856 510.499 625.129 510.499 613.129C510.499 601.132 520.229 591.405 532.23 591.405C544.232 591.405 553.962 601.132 553.962 613.129ZM542.108 318.846C542.108 330.845 532.379 340.572 520.376 340.572C508.375 340.572 498.645 330.845 498.645 318.846C498.645 306.847 508.375 297.12 520.376 297.12C532.379 297.12 542.108 306.847 542.108 318.846ZM480.862 258.606C480.862 274.423 468.039 287.245 452.218 287.245C436.396 287.245 423.572 274.423 423.572 258.606C423.572 242.79 436.396 229.968 452.218 229.968C468.039 229.968 480.862 242.79 480.862 258.606Z" stroke="white" stroke-width="9" stroke-linecap="round"/>
</g>
<defs>
<clipPath id="clip0_2232_476">
<rect width="733" height="708" fill="white" transform="translate(134 146)"/>
</clipPath>
</defs>
</svg>
