<svg width="48" height="31" viewBox="0 0 48 31" fill="none" xmlns="http://www.w3.org/2000/svg">
<path d="M23.2129 20.4541C20.5469 20.4541 18.3789 22.6221 18.3789 25.2881C18.3789 27.9541 20.5469 30.1231 23.2129 30.1231C25.8799 30.1231 28.0469 27.9541 28.0469 25.2881C28.0469 22.6221 25.8799 20.4541 23.2129 20.4541ZM23.2129 28.4041C21.4949 28.4041 20.0969 27.0071 20.0969 25.2881C20.0969 23.5701 21.4949 22.1731 23.2129 22.1731C24.9299 22.1731 26.3289 23.5701 26.3289 25.2881C26.3289 27.0071 24.9309 28.4041 23.2129 28.4041Z" fill="#FF2E8E"/>
<path d="M47.723 24.499C47.723 23.863 47.205 23 46.567 23H42V16.562V14.32V8.135C42 3.315 38.908 0 34.088 0H8.729C3.908 0 0 3.315 0 8.136V16.562C0 21.381 3.908 26 8.729 26H17V25.461C17 22.158 19.697 19.386 23 19.386C26.303 19.386 29 22.201 29 25.504V26H30.211H33.963H34.088H42.817H46.567C47.205 26 47.723 25.137 47.723 24.499ZM23 8.453C23 9.658 22.348 11 21.12 11H8.567C7.338 11 6 9.658 6 8.453V6.816C6 5.611 7.338 5 8.567 5H21.12C22.349 5 23 5.611 23 6.816V8.453ZM37 8.818C37 10.023 36.022 11 34.816 11H29.183C27.978 11 27 10.023 27 8.818V7.181C27 5.977 27.978 5 29.184 5H34.817C36.022 5 37 5.977 37 7.182V8.818Z" fill="#FF2E8E"/>
</svg>
